<?xml version="1.0" encoding="UTF-8" standalone="no"?>
<!-- Created with Inkscape (http://www.inkscape.org/) -->

<svg
   width="54.652084mm"
   height="42.235882mm"
   viewBox="0 0 54.652084 42.235882"
   version="1.1"
   id="svg1"
   xml:space="preserve"
   sodipodi:docname="menu-icon-testimonis.svg"
   inkscape:version="1.4.4 (dcaf3e7d9e, 2026-05-05)"
   xmlns:inkscape="http://www.inkscape.org/namespaces/inkscape"
   xmlns:sodipodi="http://sodipodi.sourceforge.net/DTD/sodipodi-0.dtd"
   xmlns="http://www.w3.org/2000/svg"
   xmlns:svg="http://www.w3.org/2000/svg"><sodipodi:namedview
     id="namedview1"
     pagecolor="#ffffff"
     bordercolor="#666666"
     borderopacity="1.0"
     inkscape:showpageshadow="2"
     inkscape:pageopacity="0.0"
     inkscape:pagecheckerboard="0"
     inkscape:deskcolor="#d1d1d1"
     inkscape:document-units="mm"
     inkscape:zoom="2.4715987"
     inkscape:cx="103.37439"
     inkscape:cy="79.705497"
     inkscape:window-width="1916"
     inkscape:window-height="1152"
     inkscape:window-x="0"
     inkscape:window-y="22"
     inkscape:window-maximized="1"
     inkscape:current-layer="svg1" /><defs
     id="defs1" /><g
     id="layer1"
     transform="translate(-38.018504,-60.079958)"><path
       fill="currentColor"
        stroke="currentColor"
        style="stroke-width:2;stroke-dasharray:none;stroke-opacity:1"
       d="m 60.44975,76.974176 c -3.174047,0.0534 -7.013069,1.53981 -9.524996,3.43958 -0.112586,-1.07182 -0.376445,-2.24897 -0.962789,-3.175 -3.202535,-5.05787 -12.325713,-0.67723 -9.473553,5.02708 0.340909,0.68182 0.836394,1.27725 1.440509,1.74185 0.949482,0.73019 2.056419,0.86308 3.175,1.16857 -4.269649,4.34264 -6.085417,10.1817 -6.085417,16.139584 h 17.4625 c 0.01962,-1.16714 0.239201,-2.384394 0.764353,-3.439584 4.032393,-8.10229 17.026513,-5.79061 17.491893,3.439584 h 16.93334 c 0,-2.580854 0.477316,-4.398102 -0.343634,-6.878112 -2.16619,-6.54403 -7.103258,-10.469053 -13.37615,-14.61823 -2.099643,-1.075166 -5.063766,-2.725162 -7.446886,-2.845322 1.39947,-1.13487 2.83073,-2.30732 3.63067,-3.96875 2.68435,-5.575207 -2.32334,-11.319875 -7.864,-11.884206 -4.25344,-0.433222 -8.668121,2.742638 -9.620547,6.85712 -0.315838,1.364426 -0.25314,2.908126 0.213137,4.233336 0.741272,2.10677 2.29369,3.14425 3.58657,4.7625 m 7.9375,0 c -0.189239,-0.03785 15.728391,3.830272 20.6816,14.81666 0.898824,1.993622 1.61297,4.15881 1.80064,6.35 0.0498,0.58154 0.45859,1.76646 -0.0808,2.190174 -0.68139,0.53519 -2.5238,0.19108 -3.35139,0.19108 h -8.46666 c -0.851,0 -2.63882,0.33784 -3.35139,-0.19108 -0.81383,-0.604094 -0.93399,-2.855424 -1.52871,-3.777674 -1.76507,-2.73714 -5.32262,-4.7184 -8.61365,-4.7184 -3.42049,0 -6.8174,2.18159 -8.61366,4.98299 -0.570878,0.89032 -0.704106,2.91738 -1.528703,3.513084 -0.853531,0.6166 -3.12209,0.19108 -4.145139,0.19108 H 39.812254 c 0,-6.207424 2.814107,-11.809934 7.14375,-16.139584 0.266576,-0.03785 -2.117547,-0.0395 -3.175,-0.36747 -3.073347,-0.95331 -3.817048,-4.81412 -1.565451,-7.01881 1.446068,-1.41595 4.12026,-1.47942 5.798785,-0.44833 0.712186,0.43749 1.239813,1.00201 1.616898,1.74919 0.5774,1.14411 0.412142,3.629135 0.499768,3.43959 l 7.408333,-3.47633 c 0,0 5.745835,-0.908047 5.291663,-1.02159 -2.8328,-1.91631 -5.368497,-3.60794 -5.526847,-7.40833 -0.242201,-5.81285 6.368257,-9.042761 11.347687,-7.290744 6.72198,2.365138 7.02874,12.565184 -0.26459,14.434494 z"
       id="path5051"
       sodipodi:nodetypes="cccsccccsccccccsssccsscsssssssscccccccccssc" /></g></svg>
